<svg xmlns="http://www.w3.org/2000/svg" width="320" height="320" viewBox="0 0 320 320" role="img" aria-labelledby="logoTitle logoDesc">
  <title id="logoTitle">ETL GIS Consulting LLC logo</title>
  <desc id="logoDesc">Circular emblem with a stylized four-point mark.</desc>
  <defs>
    <linearGradient id="gradient" x1="20%" y1="15%" x2="85%" y2="85%" gradientUnits="userSpaceOnUse">
      <stop offset="0" stop-color="#2f9aa5" />
      <stop offset="0.55" stop-color="#1f6f7a" />
      <stop offset="1" stop-color="#0d3c45" />
    </linearGradient>
  </defs>
  <circle cx="160" cy="160" r="142" fill="url(#gradient)" />
  <path fill="#f5fdff" d="M153.2 30.5l-4.6 59.6c-0.9 12.3-9.9 22.3-22 24.6l-58.1 11.5c-13.8 2.7-13.8 22.2 0 24.9l58.1 11.5c12.1 2.3 21.1 12.3 22 24.6l4.6 59.6c1.3 16.7 24.8 16.7 26.1 0l4.6-59.6c0.9-12.3 9.9-22.3 22-24.6l58.1-11.5c13.8-2.7 13.8-22.2 0-24.9l-58.1-11.5c-12.1-2.3-21.1-12.3-22-24.6l-4.6-59.6c-1.3-16.7-24.8-16.7-26.1 0z" />
</svg>
